# xmcd
# Track frame offsets:
# 150
# 17137
# 34649
# 50436
# 66073
# 84485
# 102747
# 117559
# 136721
# 149433
# 168295
# 188957
# 205794
# 219931
# 232343
# 249180
# 257167
# 269054
#
# Disc length: 3784 seconds
# Revision: 4
# Processed by: cddbd v1.5.2PL0 Copyright (c) Steve Scherf et al.
# Submitted via: VisiTrax 2.11.2.271 - For more info visit www.synapsa.com
#
DISCID=0c0ec612
DTITLE=Various Artist - Promo Only Country Radio - March 2009
DYEAR=2009
DGENRE=Country
TTITLE0=Lady Antebellum - I Run To You (Edit)
TTITLE1=Darren Kozelsky - Good Day To Get Gone
TTITLE2=Montgomery Gentry - One In Every Crowd (Album Version)
TTITLE3=Zac Brown Band - Whatever It Is
TTITLE4=David Nail - Red Light
TTITLE5=Rascal Flatts - Here Comes Goodbye
TTITLE6=Randy Owen and Megan Mullins - Holding Everything
TTITLE7=Billy Ray Cyrus - Back To Tennessee
TTITLE8=Eric Church - Love Your Love The Most
TTITLE9=Kid Rock - Blue Jeans and A Rosary
TTITLE10=Jamey Johnson - High Cost Of Living
TTITLE11=Gloriana - Wild At Heart
TTITLE12=Mark Wills - The Things We Forget
TTITLE13=Willie Nelson and Asleep At The Wheel - Hesitation Blues (Album Version)
TTITLE14=Shawna Russell - Should've Been Born With Wheels
TTITLE15=Tom Rush and Bonnie Bramlett - Hot Tonight (Album Version)
TTITLE16=Kenyon Lockry - Big Pig Shack (Album Version)
TTITLE17=Laura Latham - Girls Like Fast Cars Too
EXTD=YEAR: 2009
EXTT0=
EXTT1=
EXTT2=
EXTT3=
EXTT4=
EXTT5=
EXTT6=
EXTT7=
EXTT8=
EXTT9=
EXTT10=
EXTT11=
EXTT12=
EXTT13=
EXTT14=
EXTT15=
EXTT16=
EXTT17=
PLAYORDER=
